<svg width="22" height="22" viewBox="0 0 22 22" fill="none" xmlns="http://www.w3.org/2000/svg">
    <path d="M15.7234 18.5625H9.06485C6.22221 18.5625 3.90954 16.2494 3.90954 13.4063V8.12118C3.90954 5.47819 2.59244 3.03178 0.386348 1.57695C-0.00983807 1.3157 -0.119217 0.78272 0.141986 0.386465C0.403189 -0.00983385 0.936034 -0.119275 1.33231 0.14206C2.59166 0.972555 3.61336 2.06791 4.34396 3.32903C4.50184 3.50593 5.77495 4.85557 7.86199 4.85557H17.7562C20.4556 4.80509 22.5685 7.51455 21.8627 10.1206L20.7237 14.6611C20.1475 16.9582 18.0913 18.5625 15.7234 18.5625ZM5.41119 6.08881C5.55404 6.74885 5.62798 7.42943 5.62798 8.12118V13.4063C5.62798 15.3017 7.16976 16.8438 9.06485 16.8438H15.7234C17.302 16.8438 18.6728 15.7742 19.0569 14.2428L20.1959 9.70233C20.6153 8.15384 19.3597 6.54436 17.7562 6.57431H7.86195C6.91805 6.57431 6.09647 6.37077 5.41119 6.08881ZM8.63525 20.9258C8.63525 20.3325 8.15438 19.8516 7.56122 19.8516C6.13612 19.9083 6.13736 21.9438 7.56122 22C8.15438 22 8.63525 21.5191 8.63525 20.9258ZM17.1845 20.9258C17.1845 20.3325 16.7036 19.8516 16.1105 19.8516C14.6854 19.9083 14.6866 21.9438 16.1105 22C16.7036 22 17.1845 21.5191 17.1845 20.9258ZM18.6154 9.15242C18.6154 8.67779 18.2308 8.29305 17.7562 8.29305H8.20564C7.06562 8.33843 7.06648 9.96681 8.20564 10.0118H17.7562C18.2308 10.0118 18.6154 9.62705 18.6154 9.15242Z" fill="#000"/>
</svg>