<svg width="23" height="22" viewBox="0 0 23 22" fill="none" xmlns="http://www.w3.org/2000/svg">
    <path d="M20.6066 8.30528e-05C20.5622 -0.000947047 19.4615 8.3052e-05 18.2065 0.486891C16.7255 1.06139 15.6222 2.07045 14.9819 3.42641L11.2339 3.04544C10.2025 2.9408 9.19055 3.30129 8.45966 4.03348L1.99999 10.4688C0.664635 11.8064 0.665108 13.9824 2.00102 15.3194L7.63596 20.959C8.31274 21.6363 9.20064 21.9755 10.0857 21.9755C10.9582 21.9755 11.8281 21.6456 12.4895 20.9848C12.8247 20.6499 12.8249 20.1067 12.49 19.7714C12.1552 19.4362 11.6118 19.4359 11.2766 19.7709C10.6138 20.4331 9.52512 20.4219 8.84993 19.746L3.21495 14.1065C2.54697 13.4379 2.54671 12.35 3.21276 11.6829L9.67238 5.2475C10.0387 4.88057 10.5448 4.70034 11.0604 4.75262L15.4304 5.19676C15.4426 5.19827 15.4547 5.19951 15.4668 5.20045L17.5889 5.41613L17.7221 6.72376C16.2 7.2889 14.7576 7.37809 14.7222 7.38015C14.2493 7.40538 13.8862 7.80901 13.9111 8.282C13.9352 8.73988 14.3141 9.09496 14.7673 9.09496C14.7824 9.09496 14.7977 9.09457 14.813 9.09376C14.8819 9.09015 16.2839 9.01036 17.9009 8.47892L18.252 11.9259C18.3044 12.4404 18.1252 12.9452 17.7602 13.3113L14.4622 16.5479C14.124 16.8798 14.1189 17.423 14.4508 17.7612C14.7827 18.0994 15.326 18.1045 15.6642 17.7726L18.965 14.5332C18.9668 14.5314 18.9687 14.5296 18.9705 14.5278C19.7039 13.7951 20.0642 12.7834 19.9592 11.7521L19.5546 7.78021C21.7894 6.58718 22.9632 4.74223 22.9619 2.40258V2.35965C22.9619 1.05851 21.9034 4.0132e-05 20.6066 8.30528e-05ZM21.2459 2.40296C21.2467 3.85841 20.6143 5.02744 19.3622 5.89191L19.2251 4.54638C19.1838 4.14121 18.8634 3.82089 18.4583 3.77969L16.8426 3.61547C17.2968 2.94514 17.944 2.43966 18.7766 2.10664C19.7352 1.72318 20.593 1.7161 20.6024 1.71606C20.9572 1.71606 21.2459 2.00474 21.2459 2.35957V2.40296Z" fill="#000"/>
</svg>