<svg width="22" height="22" viewBox="0 0 22 22" fill="none" xmlns="http://www.w3.org/2000/svg">
    <path d="M16.8438 21.9995H5.15625C2.31309 21.9995 0 19.6864 0 16.8432V9.61281C0 8.01476 0.758613 6.4821 2.02924 5.51294L7.87299 1.05584C9.71416 -0.348426 12.2858 -0.348426 14.127 1.05584L15.9844 2.47123V1.37445C16.0298 0.234231 17.6581 0.23509 17.7031 1.37445V4.20656C17.7031 4.53325 17.5179 4.83167 17.2251 4.97669C16.9323 5.12167 16.5827 5.08807 16.3228 4.89011L13.0849 2.42272C11.8572 1.48634 10.1427 1.48634 8.91529 2.4225L3.07154 6.87961C2.22449 7.52564 1.71875 8.5474 1.71875 9.61281V16.8432C1.71875 18.7386 3.26081 20.2807 5.15625 20.2807H16.8438C18.7392 20.2807 20.2812 18.7386 20.2812 16.8432V9.61281C20.2812 8.53433 19.7812 7.5091 18.9437 6.87024C18.5663 6.58239 18.4937 6.04313 18.7816 5.66578C19.0694 5.28839 19.6087 5.21581 19.986 5.50366C21.2471 6.46547 22 8.00161 22 9.61281V16.8432C22 19.6864 19.6869 21.9995 16.8438 21.9995ZM9.28125 9.92523C8.68798 9.92523 8.20703 10.4062 8.20703 10.9995C8.26379 12.4247 10.2992 12.4236 10.3555 10.9995C10.3555 10.4061 9.87452 9.92523 9.28125 9.92523ZM13.793 10.9994C13.7362 12.4247 11.7008 12.4236 11.6445 10.9994C11.7013 9.57413 13.7367 9.57525 13.793 10.9994ZM10.3555 14.4369C10.2987 15.8622 8.26328 15.8611 8.20703 14.4369C8.26379 13.0116 10.2992 13.0128 10.3555 14.4369ZM13.793 14.4369C13.7362 15.8622 11.7008 15.8611 11.6445 14.4369C11.7013 13.0116 13.7367 13.0128 13.793 14.4369Z" fill="#000"/>
</svg>