<svg width="18" height="22" viewBox="0 0 18 22" fill="none" xmlns="http://www.w3.org/2000/svg">
    <path d="M16.5914 21.9755C16.1173 21.9755 15.733 21.5911 15.733 21.117C15.733 17.7564 12.9989 15.0223 9.63827 15.0223H8.35065C4.98999 15.0223 2.25589 17.7564 2.25589 21.117C2.25589 21.5911 1.87158 21.9755 1.39748 21.9755C0.923375 21.9755 0.539062 21.5911 0.539062 21.117C0.539062 16.8097 4.04333 13.3055 8.35065 13.3055H9.63827C13.9456 13.3055 17.4499 16.8097 17.4499 21.117C17.4499 21.5911 17.0655 21.9755 16.5914 21.9755Z" fill="#eee"/>
    <path d="M8.90857 11.5886C5.71358 11.5886 3.11426 8.98929 3.11426 5.79431C3.11426 2.59933 5.71358 0 8.90857 0C12.1035 0 14.7029 2.59933 14.7029 5.79431C14.7029 8.98929 12.1035 11.5886 8.90857 11.5886ZM8.90857 1.71683C6.66025 1.71683 4.83109 3.54599 4.83109 5.79431C4.83109 8.04263 6.66025 9.87178 8.90857 9.87178C11.1569 9.87178 12.986 8.04263 12.986 5.79431C12.986 3.54599 11.1569 1.71683 8.90857 1.71683Z" fill="#eee"/>
</svg>